# xmcd
#
# Track frame offsets: 
#        150
#        15641
#        35924
#        52889
#        71907
#        95010
#        117195
#        136459
#        149044
#        165250
#
# Disc length: 2517 seconds
#
# Revision: 2
# Processed by: cddbd v1.5.2PL0 Copyright (c) Steve Scherf et al.
# Submitted via: ExactAudioCopy v1.3
#
DISCID=9109d30a
DTITLE=圣女合唱组 - 监听 绣荷包
DYEAR=1995
DGENRE=Chorus
TTITLE0=绣荷包
TTITLE1=我想亲亲在梦中 陕北民歌
TTITLE2=三十里铺
TTITLE3=可爱的一朵玫瑰花 新疆民歌
TTITLE4=半个月亮爬上来 青海民歌
TTITLE5=兰花花 陕北民歌
TTITLE6=康定情歌 四川民歌
TTITLE7=绣荷包 陕北民歌
TTITLE8=灯碗碗开花在窗台 山西民歌
TTITLE9=小河淌水 云南民歌
EXTD=
EXTT0=
EXTT1=
EXTT2=
EXTT3=
EXTT4=
EXTT5=
EXTT6=
EXTT7=
EXTT8=
EXTT9=
PLAYORDER=
